<svg width="20" height="27" viewBox="0 0 20 27" fill="none" xmlns="http://www.w3.org/2000/svg">
<g clip-path="url(#clip0_68_31)">
<path d="M9.99757 17.0537C12.426 17.0537 14.2828 15.2062 14.2828 12.79V4.26373C14.2828 1.8475 12.426 0 9.99757 0C7.56918 0 5.71359 1.8487 5.71359 4.26373V12.79C5.71359 15.2062 7.57039 17.0537 9.99757 17.0537ZM17.568 12.7912C17.568 17.0549 13.9976 20.0387 9.99879 20.0387C6 20.0387 2.42961 17.0549 2.42961 12.7912H0C0 17.6224 3.8568 21.6024 8.56918 22.3124V27.0024H11.426V22.3124C16.1396 21.6024 19.9951 17.6224 19.9951 12.7912H17.568Z" fill="#C55430"/>
</g>
<defs>
<clipPath id="clip0_68_31">
<rect width="20" height="27" fill="white"/>
</clipPath>
</defs>
</svg>
